<?xml version="1.0"?>
<svg width="24" height="24" xmlns="http://www.w3.org/2000/svg" xmlns:svg="http://www.w3.org/2000/svg">
 <g>
  <title>Layer 1</title>
  <g id="svg_1">
   <path fill="#7f7f7f" id="svg_2" d="m18.889999,7.012c0.808001,-0.496 1.343,-1.173 1.605001,-2.034c-0.786001,0.417 -1.569,0.703 -2.351002,0.861c-0.702999,-0.756 -1.592999,-1.14 -2.659999,-1.14c-1.043,0 -1.924,0.366 -2.643001,1.078c-0.714999,0.717 -1.075999,1.588 -1.075999,2.605c0,0.309 0.039,0.585 0.117,0.819c-3.076,-0.105 -5.622,-1.381 -7.628,-3.837c-0.34,0.601 -0.51,1.213 -0.51,1.846c0,1.301 0.549,2.332 1.645,3.089c-0.625,-0.052999 -1.176,-0.210999 -1.645,-0.469999c0,0.929 0.273,1.705 0.82,2.388c0.549,0.676 1.254,1.107 2.115,1.291c-0.312,0.08 -0.641,0.118 -0.979,0.118c-0.312,0 -0.533,-0.026 -0.664,-0.083c0.23,0.757 0.664,1.370999 1.291,1.841c0.625,0.472 1.344,0.721 2.152,0.743001c-1.332,1.045 -2.855,1.561998 -4.578,1.561998c-0.422,0 -0.721,-0.005999 -0.902,-0.037998c1.697,1.101999 3.586,1.648998 5.676,1.648998c2.139,0 4.029,-0.542 5.674,-1.625999c1.645,-1.077999 2.859,-2.408 3.639001,-3.974c0.783998,-1.564 1.171999,-3.191999 1.171999,-4.892l0,-0.467999c0.757999,-0.57 1.371,-1.212 1.84,-1.921c-0.68,0.293 -1.382999,0.492 -2.110001,0.593z"/>
  </g>
 </g>
</svg>